<svg xmlns="http://www.w3.org/2000/svg" width="64" height="64" viewBox="0 0 64 64" fill="none" role="img" aria-labelledby="title desc">
  <title id="title">Tradervote favicon</title>
  <desc id="desc">Tradervote favicon using the preserved TV mark from the approved reference.</desc>
  <defs>
    <linearGradient id="goldGradient" x1="0" y1="0" x2="36" y2="42" gradientUnits="userSpaceOnUse">
      <stop offset="0" stop-color="#B07D18"/>
      <stop offset="0.18" stop-color="#D4AF37"/>
      <stop offset="0.34" stop-color="#FFF1A5"/>
      <stop offset="0.52" stop-color="#D7B041"/>
      <stop offset="0.78" stop-color="#B9871F"/>
      <stop offset="1" stop-color="#8D6110"/>
    </linearGradient>
    <linearGradient id="tealGradient" x1="16" y1="10" x2="56" y2="48" gradientUnits="userSpaceOnUse">
      <stop offset="0" stop-color="#54EFE1"/>
      <stop offset="0.55" stop-color="#14B8A6"/>
      <stop offset="1" stop-color="#0F766E"/>
    </linearGradient>
  </defs>
  <rect width="64" height="64" rx="14" fill="#0F172A"/>
  <path d="M 31 14 L 9 14 L 9 18 L 18 18 L 18 36 L 18 35 L 22 31 L 22 18 L 31 18 L 31 14 Z" fill="url(#goldGradient)"/>
  <path d="M 48 11 L 47 11 L 41 14 L 41 14 L 42 15 L 42 16 L 33 31 L 32 31 L 27 22 L 22 22 L 22 23 L 32 40 L 32 40 L 44 18 L 45 18 L 47 18 Z" fill="url(#tealGradient)"/>
  <path d="M 24 31 L 24 31 L 23 31 L 23 39 L 24 39 L 25 39 L 25 32 L 25 31 L 24 31 Z" fill="url(#tealGradient)"/>
  <path d="M 20 36 L 20 41 L 21 42 L 22 42 L 22 36 Z" fill="url(#tealGradient)"/>
  <path d="M 26 34 L 26 37 L 28 37 L 28 37 L 28 36 L 28 35 L 27 34 Z" fill="url(#tealGradient)"/>
</svg>